<svg id="visual" viewBox="0 0 675 900" width="675" height="900" xmlns="http://www.w3.org/2000/svg" xmlns:xlink="http://www.w3.org/1999/xlink" version="1.1"><rect x="0" y="0" width="675" height="900" fill="#001220"></rect><defs><linearGradient id="grad1_0" x1="0%" y1="0%" x2="100%" y2="100%"><stop offset="30%" stop-color="#ee5007" stop-opacity="1"></stop><stop offset="70%" stop-color="#ee5007" stop-opacity="1"></stop></linearGradient></defs><defs><linearGradient id="grad1_1" x1="0%" y1="0%" x2="100%" y2="100%"><stop offset="30%" stop-color="#ee5007" stop-opacity="1"></stop><stop offset="70%" stop-color="#7a2468" stop-opacity="1"></stop></linearGradient></defs><defs><linearGradient id="grad1_2" x1="0%" y1="0%" x2="100%" y2="100%"><stop offset="30%" stop-color="#001220" stop-opacity="1"></stop><stop offset="70%" stop-color="#7a2468" stop-opacity="1"></stop></linearGradient></defs><defs><linearGradient id="grad2_0" x1="0%" y1="0%" x2="100%" y2="100%"><stop offset="30%" stop-color="#ee5007" stop-opacity="1"></stop><stop offset="70%" stop-color="#ee5007" stop-opacity="1"></stop></linearGradient></defs><defs><linearGradient id="grad2_1" x1="0%" y1="0%" x2="100%" y2="100%"><stop offset="30%" stop-color="#7a2468" stop-opacity="1"></stop><stop offset="70%" stop-color="#ee5007" stop-opacity="1"></stop></linearGradient></defs><defs><linearGradient id="grad2_2" x1="0%" y1="0%" x2="100%" y2="100%"><stop offset="30%" stop-color="#7a2468" stop-opacity="1"></stop><stop offset="70%" stop-color="#001220" stop-opacity="1"></stop></linearGradient></defs><g transform="translate(675, 0)"><path d="M0 337.5C-30.9 320.4 -61.9 303.4 -94.6 291C-127.2 278.7 -161.6 271 -181 249.2C-200.5 227.3 -205 191.2 -229.8 166.9C-254.6 142.6 -299.6 130.1 -321 104.3C-342.3 78.4 -339.9 39.2 -337.5 0L0 0Z" fill="#292652"></path><path d="M0 225C-20.6 213.6 -41.3 202.2 -63 194C-84.8 185.8 -107.7 180.7 -120.7 166.1C-133.6 151.5 -136.6 127.5 -153.2 111.3C-169.7 95.1 -199.8 86.8 -214 69.5C-228.2 52.3 -226.6 26.1 -225 0L0 0Z" fill="#c71452"></path><path d="M0 112.5C-10.3 106.8 -20.6 101.1 -31.5 97C-42.4 92.9 -53.9 90.3 -60.3 83.1C-66.8 75.8 -68.3 63.7 -76.6 55.6C-84.9 47.5 -99.9 43.4 -107 34.8C-114.1 26.1 -113.3 13.1 -112.5 0L0 0Z" fill="#ee5007"></path></g><g transform="translate(0, 900)"><path d="M0 -337.5C35.8 -336 71.5 -334.5 104.3 -321C137.1 -307.5 166.8 -282 182.8 -251.6C198.8 -221.2 201 -185.7 222.5 -161.6C244 -137.6 284.8 -124.9 307.2 -99.8C329.6 -74.8 333.5 -37.4 337.5 0L0 0Z" fill="#292652"></path><path d="M0 -225C23.8 -224 47.7 -223 69.5 -214C91.4 -205 111.2 -188 121.9 -167.7C132.5 -147.4 134 -123.8 148.3 -107.8C162.7 -91.7 189.9 -83.2 204.8 -66.5C219.7 -49.8 222.4 -24.9 225 0L0 0Z" fill="#c71452"></path><path d="M0 -112.5C11.9 -112 23.8 -111.5 34.8 -107C45.7 -102.5 55.6 -94 60.9 -83.9C66.3 -73.7 67 -61.9 74.2 -53.9C81.3 -45.9 94.9 -41.6 102.4 -33.3C109.9 -24.9 111.2 -12.5 112.5 0L0 0Z" fill="#ee5007"></path></g></svg>